<?xml version="1.0" standalone="no"?>
<!DOCTYPE svg PUBLIC "-//W3C//DTD SVG 20010904//EN"
 "http://www.w3.org/TR/2001/REC-SVG-20010904/DTD/svg10.dtd">
<svg version="1.0" xmlns="http://www.w3.org/2000/svg"
 width="1016.000000pt" height="1016.000000pt" viewBox="0 0 1016.000000 1016.000000"
 preserveAspectRatio="xMidYMid meet">
<metadata>
Created by potrace 1.14, written by Peter Selinger 2001-2017
</metadata>
<g transform="translate(0.000000,1016.000000) scale(0.100000,-0.100000)"
fill="#000000" stroke="none">
<path d="M0 5080 l0 -5080 5080 0 5080 0 0 5080 0 5080 -5080 0 -5080 0 0
-5080z m2753 1955 c-15 -20 -43 -54 -62 -76 -28 -32 -81 -128 -81 -145 0 -15
20 1 30 25 6 16 23 39 36 52 l24 23 -15 -32 c-9 -17 -20 -34 -26 -37 -5 -4 -9
-10 -9 -16 0 -5 33 26 73 70 39 43 73 78 75 76 4 -4 -96 -137 -112 -150 -7 -6
-16 -21 -20 -35 -7 -25 -7 -25 11 -4 10 11 26 31 36 45 14 19 17 20 11 4 -4
-11 -7 -31 -8 -45 -1 -14 -7 -25 -15 -25 -8 0 -16 -6 -19 -14 -3 -9 0 -11 9
-6 15 10 -24 -46 -45 -64 -8 -7 -12 -20 -8 -34 6 -20 7 -19 12 8 4 21 11 29
23 27 9 -2 20 4 23 13 3 8 17 15 31 15 21 0 23 -3 18 -22 -4 -13 -13 -28 -20
-34 -8 -5 -17 -23 -21 -40 -4 -16 -15 -41 -25 -56 -11 -14 -20 -39 -21 -55 -1
-15 -7 -32 -13 -36 -7 -6 -6 -10 3 -14 6 -2 12 -9 12 -14 0 -6 -4 -8 -9 -5
-12 8 -19 -14 -13 -36 6 -25 36 -22 50 5 7 12 13 57 15 99 1 55 6 78 15 78 9
0 11 -18 7 -72 -3 -39 -8 -82 -11 -95 -5 -19 -2 -23 16 -23 13 0 20 -5 17 -12
-4 -14 43 -38 74 -38 11 0 19 -4 19 -10 0 -5 -8 -10 -18 -10 -24 0 -32 -8 -25
-26 3 -8 18 -14 34 -14 34 0 37 -10 10 -34 -11 -10 -18 -23 -15 -30 3 -7 -7
-18 -21 -26 -25 -13 -34 -30 -15 -30 14 0 12 -47 -2 -57 -7 -4 -20 -8 -28 -8
-8 0 -20 -11 -27 -24 -9 -20 -9 -27 1 -35 8 -6 16 -18 19 -26 3 -9 6 -5 6 10
1 24 1 24 20 5 10 -11 26 -47 34 -80 29 -111 88 -268 148 -390 57 -117 95
-168 108 -147 3 6 40 12 81 14 41 2 78 7 81 12 4 4 31 17 60 28 89 32 96 33
104 7 l7 -22 18 23 c10 13 22 20 29 16 15 -9 14 -39 -1 -54 -9 -9 -8 -12 7
-12 18 0 18 -1 -1 -21 -16 -17 -16 -22 -4 -29 8 -6 20 -10 27 -10 6 0 18 -9
25 -19 8 -11 29 -23 48 -28 40 -11 42 -28 3 -28 -35 0 -41 -23 -9 -31 28 -7
36 -24 11 -24 -8 0 -15 -6 -15 -14 0 -7 -13 -16 -29 -19 -17 -4 -47 -14 -68
-23 -37 -16 -38 -16 -14 -25 14 -5 31 -7 39 -4 9 3 12 -1 7 -14 -3 -11 0 -23
6 -27 21 -12 -80 -36 -178 -41 -71 -4 -93 -8 -93 -19 0 -8 -9 -14 -20 -14 -11
0 -20 -3 -20 -7 0 -12 81 -267 101 -317 10 -26 16 -52 13 -58 -3 -5 0 -16 8
-25 7 -9 13 -29 14 -45 1 -16 9 -37 18 -47 9 -10 16 -31 16 -47 0 -16 7 -40
16 -52 9 -13 13 -30 10 -38 -3 -8 1 -28 9 -43 8 -16 11 -32 7 -35 -4 -4 1 -12
11 -17 19 -11 23 -35 6 -41 -8 -3 -6 -18 5 -51 9 -26 16 -52 16 -58 0 -5 14
-39 31 -75 17 -36 29 -68 27 -69 -9 -9 -29 16 -62 80 -37 70 -41 55 -5 -21 24
-52 24 -62 -1 -39 -20 18 -20 18 -5 -25 8 -23 15 -49 15 -58 0 -23 -46 68 -53
106 -7 33 -19 66 -57 147 -10 22 -24 55 -30 73 -13 33 -30 43 -30 17 0 -8 4
-15 8 -15 5 0 9 -26 9 -57 0 -32 4 -57 9 -56 6 1 10 -10 9 -25 -1 -40 16 -116
28 -123 9 -7 32 -59 44 -104 7 -28 74 -188 83 -200 8 -10 14 -45 29 -165 4
-36 11 -74 15 -85 8 -20 7 -20 -8 -1 -16 20 -16 20 -17 0 -1 -10 0 -23 1 -29
22 -89 27 -184 11 -245 -9 -35 -9 -34 -10 15 -1 68 -7 120 -21 191 -16 83 -20
94 -32 94 -6 0 -19 7 -28 15 -16 15 -17 14 -12 -12 7 -41 -16 -16 -24 26 -5
25 -4 32 4 27 18 -11 14 8 -6 35 -11 13 -24 45 -30 71 -13 53 -54 127 -60 110
-2 -7 -8 -9 -14 -6 -6 4 -5 -2 1 -15 7 -11 15 -21 19 -21 4 0 8 -24 8 -53 1
-28 5 -70 9 -91 9 -48 -10 -42 -20 6 -4 18 -16 52 -27 77 -14 34 -16 46 -6 52
9 6 9 13 0 35 -7 14 -16 24 -19 20 -11 -11 -78 125 -97 197 -13 49 -68 217
-86 262 -21 53 -40 112 -40 125 0 8 -6 26 -13 41 -8 14 -21 45 -30 70 -9 24
-32 89 -52 144 -20 55 -39 111 -42 125 -3 14 -9 30 -13 35 -3 6 -13 29 -20 53
-7 24 -17 45 -22 48 -13 8 4 -59 24 -91 10 -16 18 -41 18 -54 0 -24 16 -91 30
-126 5 -11 16 -45 25 -75 9 -30 18 -60 20 -67 2 -7 -2 -10 -11 -6 -8 3 -14 -1
-14 -8 0 -9 -4 -7 -11 4 -6 10 -8 29 -5 43 4 14 2 24 -5 24 -7 0 -8 11 -4 29
5 24 3 29 -12 27 -13 -1 -22 11 -32 44 -8 25 -17 47 -21 50 -13 9 -37 64 -44
100 -3 19 -19 60 -34 90 -15 30 -27 69 -27 86 1 27 -3 31 -21 29 -33 -3 -184
-87 -319 -177 -66 -44 -113 -73 -105 -65 32 32 171 125 287 192 68 39 123 76
123 83 0 21 -19 14 -114 -39 -179 -101 -259 -156 -401 -274 -86 -72 -169 -123
-208 -131 -38 -6 -62 -35 -70 -81 -1 -10 -15 -43 -29 -73 -30 -63 -64 -181
-73 -256 -5 -36 -2 -62 9 -89 20 -46 20 -55 2 -55 -11 0 -11 -8 0 -51 9 -34
10 -57 4 -68 -5 -9 -10 -11 -10 -5 0 14 -36 25 -57 17 -10 -4 -13 -14 -10 -32
7 -37 -3 -81 -19 -81 -8 0 -14 -9 -14 -20 0 -11 5 -20 10 -20 6 0 10 -13 10
-30 0 -27 -3 -30 -30 -30 -18 0 -37 -8 -47 -20 -12 -13 -21 -16 -29 -10 -8 7
-15 5 -24 -5 -7 -8 -21 -15 -31 -15 -16 0 -18 -5 -13 -25 7 -28 -12 -35 -35
-12 -10 10 -15 8 -26 -6 -8 -12 -15 -14 -20 -8 -7 13 -90 13 -120 2 -17 -7
-12 -10 25 -20 65 -17 112 -43 100 -55 -7 -7 -28 -4 -62 8 -67 24 -100 46 -94
62 6 16 -19 44 -39 44 -19 0 -85 69 -101 105 -10 25 -14 27 -19 13 -9 -22 -34
-23 -42 -2 -3 8 -16 20 -29 25 -15 5 -24 17 -24 30 0 11 -16 40 -35 63 -36 44
-44 74 -22 80 6 3 33 10 59 17 26 7 44 17 42 21 -3 4 2 8 11 8 45 0 195 135
179 161 -3 5 0 9 7 9 7 0 24 10 37 23 l25 22 -13 -24 c-7 -14 -33 -46 -58 -73
-26 -28 -39 -48 -30 -48 29 0 80 67 178 235 26 43 36 80 20 70 -9 -5 -11 -4
-6 4 4 6 11 9 16 6 14 -9 52 35 46 51 -3 8 -2 12 4 9 13 -8 30 29 20 44 -10
18 -44 6 -37 -13 4 -9 0 -13 -11 -12 -9 2 -18 12 -20 24 -6 40 -52 54 -52 16
0 -9 -7 -14 -17 -12 -14 3 -17 11 -15 41 3 31 0 37 -15 37 -11 0 -34 16 -53
35 -19 19 -29 35 -23 35 17 0 10 65 -7 66 -8 1 -21 2 -27 3 -7 0 -13 10 -13
22 0 13 -10 23 -30 30 -47 17 -36 26 38 34 37 4 81 13 97 20 17 7 46 18 65 25
19 7 69 30 110 50 41 20 110 45 152 54 42 9 81 22 86 29 22 27 264 519 258
524 -3 4 -27 -11 -53 -33 -90 -74 -88 -69 17 41 96 101 117 131 148 205 6 14
21 40 32 58 44 65 0 29 -146 -120 -155 -160 -223 -220 -236 -212 -5 3 -11 -2
-14 -10 -3 -9 -14 -16 -23 -16 -9 0 -25 -6 -36 -13 -30 -21 -157 -67 -184 -67
-13 0 -29 7 -36 17 -10 13 -17 14 -45 5 -37 -14 -50 -9 -50 19 0 10 -7 19 -15
19 -8 0 -15 -7 -15 -16 0 -8 -5 -12 -11 -8 -6 3 -8 15 -6 26 4 13 -1 22 -17
29 -12 6 -28 24 -35 40 -7 16 -25 36 -41 44 -25 13 -28 13 -32 -3 -7 -24 1
-42 18 -42 8 0 14 -7 14 -15 0 -22 -11 -18 -38 13 -28 32 -44 67 -46 102 -1
19 -7 26 -28 28 -24 3 -30 10 -42 55 -25 92 -29 127 -12 127 8 0 16 -6 19 -12
7 -19 37 22 36 47 -3 48 11 58 50 33 14 -9 27 -8 56 4 l37 15 -33 21 c-45 29
-17 29 59 1 73 -28 131 -33 139 -13 7 18 32 18 39 -1 8 -21 23 -11 141 93 187
166 381 303 566 402 53 28 97 56 97 62 0 6 6 8 14 5 23 -9 49 17 48 49 0 16 4
34 8 39 4 6 24 63 45 128 20 64 41 117 46 117 5 0 9 7 9 15 0 8 11 27 25 42
54 61 105 128 105 139 0 7 24 37 53 68 52 56 81 75 53 35 -8 -12 -12 -27 -10
-33 3 -7 -18 -43 -46 -81 -28 -37 -64 -92 -81 -121 -17 -30 -34 -56 -40 -59
-5 -4 -9 -13 -9 -21 0 -8 5 -12 10 -9 6 4 8 10 6 14 -3 4 8 21 24 36 17 16 30
32 30 37 0 11 88 125 163 211 62 70 89 92 40 32z m2507 15 c0 -5 -5 -10 -11
-10 -5 0 -7 5 -4 10 3 6 8 10 11 10 2 0 4 -4 4 -10z m-2550 -9 c0 -5 -12 -17
-27 -26 l-28 -18 24 27 c26 28 31 31 31 17z m2660 -43 c0 -5 20 -8 45 -7 51 3
66 -6 41 -24 -11 -8 -15 -19 -10 -30 5 -14 13 -17 37 -11 27 5 29 4 22 -12 -5
-11 -9 -30 -9 -44 -1 -14 -8 -36 -15 -49 -11 -21 -11 -25 3 -33 25 -14 20 -61
-6 -73 -27 -12 -32 -54 -9 -71 12 -9 9 -12 -14 -18 -34 -9 -43 -1 -28 23 10
16 8 20 -15 24 -34 7 -85 -39 -61 -54 8 -5 22 -9 31 -9 25 0 8 -47 -34 -92
-33 -34 -36 -42 -52 -165 -54 -411 -85 -818 -106 -1423 -15 -411 -2 -535 66
-627 15 -21 15 -23 0 -23 -13 0 -11 -10 14 -53 31 -55 42 -103 18 -79 -32 32
-70 0 -50 -41 18 -37 20 -76 6 -81 -8 -3 -13 -16 -12 -29 2 -23 6 -24 53 -21
115 8 331 65 352 93 36 49 91 82 77 47 -7 -18 8 -27 26 -15 13 8 13 10 1 18
-11 7 -9 10 10 13 16 2 23 9 21 21 -4 22 34 23 58 2 22 -19 48 -10 52 18 3 19
8 22 43 19 22 -2 50 -10 62 -17 19 -13 25 -12 58 11 36 24 38 24 56 8 12 -11
16 -21 10 -27 -5 -5 -2 -16 10 -28 23 -23 38 -24 54 -2 8 10 19 14 30 9 14 -5
16 -9 7 -18 -17 -17 -15 -23 11 -25 85 -9 81 -9 92 22 11 33 49 88 107 152 21
24 38 51 38 62 0 19 -3 19 -51 -7 -37 -19 -53 -23 -56 -14 -8 21 -20 14 -90
-48 -37 -33 -75 -60 -85 -60 -23 0 -23 1 12 57 34 53 36 63 15 63 -8 0 -15 4
-15 10 0 12 90 79 106 80 6 0 18 8 25 17 12 15 12 16 -2 11 -12 -5 -18 0 -22
18 -6 32 17 64 42 57 12 -3 30 6 50 25 32 30 39 56 21 67 -6 4 -8 15 -5 26 4
11 8 38 10 62 1 23 6 51 11 61 5 13 4 17 -4 12 -17 -10 -22 20 -23 147 -2 93
1 121 12 128 11 7 11 9 -3 9 -14 0 -16 11 -12 83 3 45 9 110 15 144 7 47 6 67
-3 83 -10 16 -10 22 -1 28 16 10 61 200 50 211 -5 5 -4 17 2 29 6 10 7 23 3
27 -4 5 -2 5 5 1 15 -8 48 38 38 54 -4 6 -2 16 3 23 12 14 11 67 0 67 -5 0 -8
7 -8 15 0 8 7 15 15 15 9 0 25 19 35 43 11 23 31 62 45 87 13 25 25 52 25 61
0 9 9 24 20 34 11 10 20 24 20 31 0 7 6 17 13 21 7 4 23 33 37 63 32 72 73
140 133 220 27 36 58 82 68 103 11 20 24 37 29 37 5 0 24 16 42 36 41 44 88
72 88 51 0 -8 -9 -26 -20 -40 -36 -46 -21 -50 26 -7 31 29 49 39 54 31 4 -8
19 3 44 31 20 24 44 51 53 60 21 23 81 54 120 62 19 5 35 15 38 27 4 12 13 18
21 15 18 -7 64 10 78 30 10 13 58 27 191 54 25 5 45 4 53 -2 8 -7 12 -7 12 2
0 9 10 10 33 6 119 -24 172 -26 133 -4 -9 5 -14 13 -11 18 8 12 46 0 82 -26
17 -13 39 -24 48 -24 9 0 44 -15 78 -34 84 -46 135 -62 150 -46 9 8 7 9 -7 4
-15 -6 -18 -4 -14 8 5 11 -10 23 -53 43 -32 16 -68 39 -79 52 -12 14 -34 29
-50 34 -25 9 -50 39 -32 39 8 0 151 -62 170 -73 6 -5 12 -16 12 -26 0 -15 11
-24 63 -49 4 -2 4 3 1 12 -4 11 7 9 48 -11 58 -28 178 -110 178 -122 0 -4 20
-27 45 -52 25 -24 77 -86 116 -136 48 -64 79 -95 97 -100 115 -28 267 -211
277 -333 2 -19 8 -55 14 -78 7 -24 11 -53 10 -65 -4 -41 1 -68 11 -62 5 3 7
12 3 20 -10 28 12 14 33 -19 17 -27 22 -49 21 -104 0 -38 3 -74 7 -80 10 -17
-12 -65 -29 -59 -10 4 -18 -8 -29 -41 -9 -26 -25 -53 -36 -60 -30 -19 -50 -78
-50 -149 0 -65 -23 -168 -41 -178 -5 -4 -9 -11 -9 -16 0 -6 5 -7 11 -3 14 8 4
-88 -12 -117 -5 -10 -9 -31 -9 -48 0 -17 -9 -48 -20 -68 -11 -20 -17 -46 -14
-57 2 -12 -12 -68 -31 -126 -55 -159 -55 -159 -43 -166 6 -4 0 -15 -14 -28
-27 -24 -94 -154 -91 -176 3 -21 -18 -61 -29 -54 -13 8 -38 -16 -38 -36 0 -10
-5 -20 -11 -22 -6 -2 -11 -24 -12 -48 -2 -34 -6 -45 -19 -45 -14 0 -61 -44
-149 -141 -14 -16 -43 -45 -65 -64 -21 -19 -57 -55 -79 -80 -22 -25 -59 -60
-82 -79 -24 -19 -41 -36 -39 -38 5 -5 53 24 74 44 23 22 26 14 4 -10 -12 -13
-45 -35 -73 -51 -28 -15 -59 -35 -70 -44 -10 -10 -35 -23 -56 -31 -21 -7 -58
-22 -83 -33 -68 -31 -82 -36 -117 -43 -18 -4 -33 -11 -33 -16 0 -6 9 -7 20 -4
14 5 20 2 20 -9 0 -10 -9 -16 -22 -17 -13 0 -34 -2 -48 -3 -14 -2 -30 4 -36
13 -10 12 -15 13 -27 2 -11 -9 -42 -11 -109 -8 -51 2 -104 1 -118 -3 -20 -6
-15 -8 23 -9 26 -1 47 -5 47 -10 0 -5 15 -13 33 -16 17 -4 37 -12 44 -17 6 -5
30 -9 52 -10 22 0 48 -6 58 -14 15 -11 2 -13 -93 -14 -103 0 -112 1 -117 20
-4 15 -14 20 -41 20 -25 0 -34 -4 -30 -13 4 -10 -11 -12 -71 -6 -106 10 -130
17 -215 56 -144 66 -233 121 -244 149 -3 8 -11 14 -18 14 -16 0 -58 44 -123
128 -26 34 -54 62 -62 62 -8 0 -13 7 -11 16 2 9 -7 20 -19 25 -14 5 -23 5 -23
-1 0 -6 -7 -10 -16 -10 -10 0 -14 -5 -10 -16 12 -31 -16 -1 -31 33 -13 32 -16
34 -31 21 -35 -31 -70 -30 -40 0 9 9 8 12 -5 12 -24 0 -21 15 8 38 14 11 25
23 25 26 0 10 -29 7 -49 -6 -23 -14 -51 4 -51 33 0 24 -8 24 -45 -1 -42 -28
-75 -27 -75 3 0 20 -4 23 -30 19 -16 -2 -35 -10 -41 -18 -9 -11 -6 -14 20 -14
35 0 38 -7 16 -36 -8 -10 -15 -26 -15 -35 0 -9 -7 -22 -15 -29 -19 -16 -19
-30 -1 -30 8 0 16 -6 19 -13 5 -13 -29 -88 -73 -162 l-23 -40 37 35 c20 19 53
60 74 90 20 30 41 58 45 61 4 3 5 13 1 22 -4 12 -1 17 13 17 10 0 24 10 31 21
17 27 39 11 24 -17 -5 -11 -12 -35 -16 -55 -4 -21 -13 -42 -21 -49 -8 -7 -15
-20 -15 -29 0 -9 -14 -34 -30 -55 -17 -22 -30 -44 -30 -50 0 -13 -61 -76 -73
-76 -5 0 -36 -18 -68 -39 -36 -24 -66 -37 -78 -34 -12 3 -31 -7 -54 -31 -36
-36 -61 -50 -37 -21 7 9 10 18 7 22 -9 9 -86 -27 -100 -47 -14 -19 -90 -61
-162 -89 -27 -10 -83 -38 -124 -60 -41 -23 -75 -41 -76 -41 -2 0 -2 51 -2 112
1 62 0 157 -1 210 -3 90 -1 100 23 138 15 23 24 48 21 56 -9 23 -76 18 -104
-8 l-25 -23 12 23 c13 25 13 25 -55 22 -23 -1 -45 4 -49 10 -7 12 -142 7 -210
-7 l-30 -7 30 -7 c30 -7 29 -7 -7 -8 -28 -1 -36 -5 -32 -15 7 -18 -15 -31 -29
-17 -17 17 -27 13 -27 -11 0 -16 -3 -19 -11 -11 -13 13 -88 -2 -109 -23 -12
-12 -8 -14 37 -14 29 0 55 -4 58 -10 3 -5 15 -10 26 -10 28 0 19 -24 -10 -28
-12 -2 -47 4 -77 14 -42 13 -56 22 -60 41 -4 14 -16 26 -33 30 -14 3 -45 17
-69 29 -37 20 -53 22 -110 18 -74 -6 -162 -23 -177 -34 -5 -4 -28 -13 -50 -20
-22 -7 -79 -32 -128 -57 -48 -24 -118 -50 -155 -59 -37 -8 -77 -22 -88 -29
-12 -8 -45 -17 -73 -21 -35 -5 -55 -13 -62 -25 -8 -16 -6 -19 18 -19 25 0 25
-1 9 -13 -14 -10 -32 -11 -70 -5 -28 5 -69 8 -91 7 -69 -3 -87 0 -79 13 5 8 2
9 -10 5 -9 -4 -15 -3 -12 2 7 11 -16 21 -41 17 -10 -2 -12 -1 -5 1 20 7 -6 33
-32 33 -27 0 -66 27 -66 45 0 8 -8 19 -17 24 -15 9 -16 12 -4 20 7 5 10 14 6
21 -4 6 1 20 10 30 17 18 16 20 -9 31 -14 7 -26 16 -26 20 0 5 -7 6 -15 3 -19
-8 -19 6 0 33 9 12 14 28 13 34 -2 7 5 15 15 17 10 2 17 -3 17 -13 0 -8 7 -18
15 -21 21 -8 19 -21 -5 -29 -29 -9 -25 -25 6 -25 15 0 32 -7 39 -17 19 -26 35
-8 25 28 -6 20 -6 39 0 50 6 10 11 30 12 44 2 18 10 28 26 32 16 4 21 10 17
23 -7 23 34 30 116 18 34 -4 65 -5 70 -2 15 9 10 24 -8 24 -18 1 -53 22 -53
33 0 3 8 3 19 0 10 -3 21 0 25 5 5 8 -38 20 -89 26 -5 1 -21 7 -34 15 -61 34
71 35 141 0 54 -27 121 -41 130 -26 5 9 15 8 41 -1 45 -16 67 -15 67 3 0 9 9
15 23 15 16 0 18 -3 8 -9 -11 -7 -10 -11 7 -20 11 -6 29 -11 39 -11 10 0 27
-9 36 -21 10 -11 28 -19 40 -18 12 1 29 -1 37 -4 53 -22 83 -28 162 -34 94 -6
110 2 63 33 -32 21 -36 74 -5 74 11 0 23 7 26 15 4 8 12 15 20 15 8 0 14 5 14
10 0 6 11 21 24 33 14 12 33 38 44 57 11 21 26 35 38 35 11 0 25 12 33 30 17
35 61 255 61 306 0 19 5 40 11 46 15 15 41 191 33 227 -4 17 -2 26 3 23 6 -4
8 4 5 19 -3 19 -7 22 -13 12 -5 -8 -9 -8 -9 -2 0 15 25 36 33 27 4 -3 7 2 7
12 0 10 3 16 6 13 3 -3 -2 -55 -11 -114 -9 -60 -21 -140 -26 -179 -8 -67 -20
-139 -35 -215 -5 -26 -4 -32 5 -24 20 19 95 575 85 630 -4 22 -2 40 7 50 9 11
13 56 14 147 2 134 12 270 22 297 3 8 5 26 4 40 -2 21 0 22 9 10 9 -11 10 -2
5 40 -3 33 0 94 10 150 14 88 20 199 11 189 -5 -5 -38 -279 -66 -543 -11 -105
-25 -195 -31 -200 -8 -8 -10 -3 -5 19 3 17 10 77 16 135 6 58 22 201 36 318
14 118 23 216 21 219 -3 2 -24 -27 -47 -66 -22 -39 -43 -71 -45 -71 -2 0 19
53 47 118 50 118 81 223 72 246 -3 7 0 34 6 61 6 26 8 50 5 53 -6 6 -103 -200
-129 -273 -28 -77 -66 -152 -92 -180 -13 -14 -24 -30 -24 -36 0 -5 -7 -9 -15
-9 -9 0 -20 -10 -26 -22 -6 -13 -31 -39 -57 -58 -26 -19 -49 -38 -52 -41 -10
-12 -60 -19 -60 -9 0 13 -37 13 -45 0 -11 -18 -47 -11 -52 10 -6 21 -30 22
-26 1 2 -6 -4 -11 -13 -11 -12 0 -15 6 -11 21 4 15 -1 22 -18 29 -13 5 -39 25
-59 44 -19 20 -43 36 -51 36 -25 0 -14 -43 13 -55 23 -10 28 -20 14 -29 -14
-8 -92 78 -101 110 -5 18 -15 30 -27 30 -10 1 -25 2 -32 3 -14 1 -97 169 -88
178 3 3 12 1 20 -6 11 -9 16 -6 24 18 7 19 7 33 1 36 -5 4 -9 18 -9 32 0 23 3
25 33 19 24 -4 39 0 61 19 l29 23 -36 7 c-41 8 -50 25 -14 25 12 0 48 -4 80
-10 60 -9 114 1 102 20 -10 16 24 24 41 9 18 -15 18 -16 70 86 165 320 392
623 519 695 22 12 44 28 48 36 11 19 27 18 27 -1 0 -8 5 -15 10 -15 6 0 10 -4
10 -10 0 -5 -7 -10 -15 -10 -8 0 -19 -9 -25 -20 -6 -11 -7 -20 -2 -20 5 0 17
9 27 20 10 11 24 20 32 20 7 0 13 4 13 9 0 5 13 12 30 16 16 4 32 11 35 16 4
5 17 9 30 9 13 0 27 5 30 10 10 16 28 12 21 -5 -9 -26 24 -17 36 9 10 23 12
24 34 9 13 -8 24 -20 24 -25z m-250 17 c-6 -8 -9 -19 -5 -25 3 -5 1 -10 -4
-10 -15 0 -14 23 1 38 17 17 23 15 8 -3z m2965 -145 c3 -5 2 -10 -4 -10 -5 0
-13 5 -16 10 -3 6 -2 10 4 10 5 0 13 -4 16 -10z m115 -60 c8 -5 11 -10 5 -10
-5 0 -17 5 -25 10 -8 5 -10 10 -5 10 6 0 17 -5 25 -10z m-915 -45 c-10 -5 -35
-24 -54 -41 -20 -17 -51 -39 -68 -48 -36 -18 -39 -26 -21 -44 8 -8 8 -12 1
-12 -6 0 -16 7 -23 15 -11 13 -8 20 15 45 15 16 31 28 34 27 3 -1 24 16 46 37
22 21 49 42 60 46 26 10 34 -11 10 -25z m-4530 -15 c-3 -5 -1 -10 4 -10 6 0
11 -4 11 -9 0 -5 -11 -8 -25 -8 -25 0 -25 0 -9 18 18 20 29 25 19 9z m1675
-540 c0 -5 -4 -10 -10 -10 -5 0 -10 5 -10 10 0 6 5 10 10 10 6 0 10 -4 10 -10z
m4739 -92 c10 -24 21 -72 24 -108 6 -58 5 -62 -6 -33 -7 17 -15 35 -19 39 -5
4 -8 17 -8 29 0 13 -7 39 -15 58 -18 43 -19 57 -4 57 5 0 18 -19 28 -42z m33
-285 c5 -63 -5 -123 -18 -111 -6 7 -12 167 -5 173 13 14 19 -1 23 -62z m-4432
-153 c0 -5 -5 -10 -11 -10 -5 0 -7 5 -4 10 3 6 8 10 11 10 2 0 4 -4 4 -10z
m-390 -35 c0 -8 -4 -15 -9 -15 -13 0 -22 16 -14 24 11 11 23 6 23 -9z m-1330
-152 c0 -22 -8 -14 -19 20 -10 29 -9 30 4 13 8 -11 15 -26 15 -33z m60 13 c0
-2 -8 -10 -17 -17 -16 -13 -17 -12 -4 4 13 16 21 21 21 13z m-1850 -121 c0 -8
-4 -15 -9 -15 -13 0 -22 16 -14 24 11 11 23 6 23 -9z m430 -49 c0 -3 -4 -8
-10 -11 -5 -3 -10 -1 -10 4 0 6 5 11 10 11 6 0 10 -2 10 -4z m1854 -172 c23
-9 9 -24 -21 -24 -21 0 -24 2 -13 15 14 17 13 17 34 9z m1373 -131 c-9 -107
-12 -121 -23 -111 -7 7 18 218 26 218 3 0 2 -48 -3 -107z m-1299 80 c-4 -22
-72 -37 -100 -22 -34 18 -9 29 85 37 12 1 17 -4 15 -15z m-78 -63 c0 -5 -4
-10 -9 -10 -6 0 -13 5 -16 10 -3 6 1 10 9 10 9 0 16 -4 16 -10z m-270 -30 c0
-16 -21 -22 -36 -9 -11 9 -12 14 -3 20 14 8 39 1 39 -11z m1587 -342 c-3 -8
-6 -5 -6 6 -1 11 2 17 5 13 3 -3 4 -12 1 -19z m-2708 -99 c-8 -5 -19 -9 -25
-9 -14 0 -174 -157 -174 -170 0 -6 -9 -10 -20 -10 -31 0 -24 14 25 54 25 21
45 44 45 51 0 8 10 20 23 26 12 6 41 32 65 56 39 41 44 43 59 28 14 -14 14
-18 2 -26z m-226 -91 c5 -17 -22 -58 -38 -58 -22 0 -24 27 -4 49 22 24 35 27
42 9z m2881 -125 c-10 -52 -52 -145 -53 -116 -1 12 4 25 10 29 6 3 9 17 6 30
-2 13 1 25 9 28 6 2 15 18 19 35 9 44 17 38 9 -6z m1533 -100 c-14 -15 -30
-23 -34 -19 -4 4 5 19 21 32 37 32 48 21 13 -13z m-507 -63 c0 -5 -4 -10 -10
-10 -5 0 -10 5 -10 10 0 6 5 10 10 10 6 0 10 -4 10 -10z m-1765 -130 c3 -5 -3
-10 -14 -10 -11 0 -23 5 -26 10 -3 6 3 10 14 10 11 0 23 -4 26 -10z m-196 -46
c2 -2 2 -7 -2 -10 -9 -9 -57 5 -57 16 0 9 47 4 59 -6z m-139 -59 c0 -2 -9 -9
-20 -15 -16 -9 -20 -8 -20 5 0 8 9 15 20 15 11 0 20 -2 20 -5z m-222 -30 c-3
-3 -9 2 -12 12 -6 14 -5 15 5 6 7 -7 10 -15 7 -18z m32 -76 c0 -6 -4 -7 -10
-4 -5 3 -10 11 -10 16 0 6 5 7 10 4 6 -3 10 -11 10 -16z m10 -29 c0 -5 -2 -10
-4 -10 -3 0 -8 5 -11 10 -3 6 -1 10 4 10 6 0 11 -4 11 -10z m-112 -75 c-3 -3
-9 2 -12 12 -6 14 -5 15 5 6 7 -7 10 -15 7 -18z m86 -74 c9 -30 14 -56 12 -58
-5 -5 -43 85 -51 122 -7 28 -6 29 8 10 8 -11 22 -45 31 -74z m66 69 c0 -5 -4
-10 -10 -10 -5 0 -10 5 -10 10 0 6 5 10 10 10 6 0 10 -4 10 -10z m1527 -32
c-3 -8 -6 -5 -6 6 -1 11 2 17 5 13 3 -3 4 -12 1 -19z m-872 -107 c9 -15 -29
-31 -55 -24 l-22 6 23 13 c29 16 46 17 54 5z m-125 -61 c0 -5 -5 -10 -11 -10
-5 0 -7 5 -4 10 3 6 8 10 11 10 2 0 4 -4 4 -10z m3577 -6 c-3 -3 -12 -4 -19
-1 -8 3 -5 6 6 6 11 1 17 -2 13 -5z m220 -40 c-3 -3 -12 -4 -19 -1 -8 3 -5 6
6 6 11 1 17 -2 13 -5z m-4417 -110 c0 -8 -4 -12 -10 -9 -5 3 -10 10 -10 16 0
5 5 9 10 9 6 0 10 -7 10 -16z"/>
<path d="M2610 6958 l-23 -33 28 27 c16 15 26 30 23 33 -3 4 -16 -9 -28 -27z"/>
<path d="M2615 6729 c-4 -6 -5 -12 -2 -15 2 -3 7 2 10 11 7 17 1 20 -8 4z"/>
<path d="M2466 6674 c-10 -25 1 -29 14 -5 6 12 7 21 1 21 -5 0 -12 -7 -15 -16z"/>
<path d="M2610 6559 c0 -5 5 -7 10 -4 6 3 10 8 10 11 0 2 -4 4 -10 4 -5 0 -10
-5 -10 -11z"/>
<path d="M2135 6252 c-173 -99 -342 -228 -505 -383 -77 -72 -51 -58 34 19 147
133 317 259 471 347 102 58 127 75 109 75 -5 0 -54 -26 -109 -58z"/>
<path d="M2709 6015 c-7 -10 27 -155 38 -165 3 -3 3 18 0 45 -6 43 -5 46 4 21
9 -21 14 -25 20 -15 5 8 8 23 8 34 0 20 -1 20 -8 0 -7 -16 -9 -14 -14 13 -4
18 -13 32 -21 32 -8 0 -16 10 -18 23 -2 12 -6 18 -9 12z"/>
<path d="M2761 5974 c0 -11 3 -14 6 -6 3 7 2 16 -1 19 -3 4 -6 -2 -5 -13z"/>
<path d="M2777 5883 c-4 -3 -7 -13 -7 -22 1 -13 3 -13 11 2 11 19 8 33 -4 20z"/>
<path d="M2750 5835 c0 -5 5 -17 10 -25 5 -8 10 -10 10 -5 0 6 -5 17 -10 25
-5 8 -10 11 -10 5z"/>
<path d="M2800 5825 c0 -8 4 -15 10 -15 5 0 7 7 4 15 -4 8 -8 15 -10 15 -2 0
-4 -7 -4 -15z"/>
<path d="M1362 5793 c-6 -2 -10 -9 -6 -14 8 -14 21 -11 28 6 6 15 1 17 -22 8z"/>
<path d="M1218 5783 c6 -2 18 -2 25 0 6 3 1 5 -13 5 -14 0 -19 -2 -12 -5z"/>
<path d="M2775 5759 c10 -35 23 -45 18 -15 -3 15 -10 29 -15 32 -6 4 -7 -2 -3
-17z"/>
<path d="M2253 5403 c-103 -214 -156 -333 -151 -339 5 -4 125 34 226 72 90 34
196 76 204 80 14 8 -6 46 -29 55 -14 5 -21 14 -17 20 9 15 -36 109 -52 109
-16 0 -25 25 -12 38 13 13 0 35 -18 28 -8 -3 -11 0 -7 10 7 19 -15 44 -33 37
-16 -6 -19 12 -4 22 13 8 13 18 -3 39 -11 16 -24 -5 -104 -171z"/>
<path d="M2861 5545 c0 -5 6 -21 14 -35 8 -14 14 -20 14 -15 0 6 -6 21 -14 35
-8 14 -14 21 -14 15z"/>
<path d="M2042 5518 c-18 -23 -283 -560 -273 -553 6 3 32 48 57 100 26 52 51
92 55 89 5 -3 6 3 2 12 -5 13 -3 15 7 9 10 -6 12 -4 7 8 -4 10 -2 16 6 14 7
-1 12 9 13 23 1 14 19 60 41 101 54 100 57 106 82 162 21 47 22 58 3 35z"/>
<path d="M2900 5508 c0 -9 5 -20 10 -23 6 -3 10 -11 10 -17 0 -7 -6 -6 -15 2
-12 10 -15 10 -15 0 0 -6 8 -14 19 -17 17 -4 32 -26 45 -65 3 -10 10 -18 15
-18 11 0 -19 74 -50 124 -12 20 -19 25 -19 14z"/>
<path d="M3086 4983 c32 -79 39 -93 47 -93 5 0 5 -4 2 -10 -3 -5 3 -10 15 -10
16 0 21 -6 20 -22 -3 -35 1 -45 9 -24 10 26 -13 90 -33 94 -11 3 -15 10 -11
22 3 10 1 21 -5 25 -5 3 -10 1 -10 -5 0 -22 -19 1 -25 30 -4 17 -11 30 -15 30
-5 0 -2 -17 6 -37z"/>
<path d="M3021 4980 c-1 -9 13 -51 30 -95 17 -44 39 -107 49 -140 10 -33 26
-78 35 -100 10 -22 21 -51 26 -64 5 -13 12 -22 14 -19 5 5 -46 163 -69 213 -7
17 -19 48 -26 70 -21 73 -58 157 -59 135z"/>
<path d="M2700 4925 c0 -16 44 -104 53 -105 4 0 7 7 7 15 0 8 -4 15 -10 15 -5
0 -10 6 -10 13 0 15 -40 76 -40 62z"/>
<path d="M2836 4890 c10 -36 42 -107 43 -94 1 6 -10 36 -24 65 -14 30 -22 43
-19 29z"/>
<path d="M2760 4786 c0 -9 5 -16 10 -16 6 0 10 4 10 9 0 6 -4 13 -10 16 -5 3
-10 -1 -10 -9z"/>
<path d="M3184 4759 c-3 -6 -1 -15 6 -19 7 -4 9 -13 6 -19 -8 -13 11 -80 26
-96 7 -7 7 -2 2 15 -4 14 -9 41 -9 60 -2 59 -5 70 -14 70 -6 0 -13 -5 -17 -11z"/>
<path d="M2890 4754 c0 -7 7 -27 15 -45 8 -19 14 -29 15 -23 0 7 -7 27 -15 45
-8 19 -14 29 -15 23z"/>
<path d="M1975 4600 c-3 -6 1 -7 9 -4 18 7 21 14 7 14 -6 0 -13 -4 -16 -10z"/>
<path d="M3236 4590 c3 -14 11 -32 16 -40 6 -10 7 -7 2 10 -3 14 -11 32 -16
40 -6 10 -7 7 -2 -10z"/>
<path d="M2957 4553 c-4 -6 0 -19 8 -29 11 -15 14 -16 15 -4 0 21 -16 44 -23
33z"/>
<path d="M3200 4443 c0 -5 7 -18 15 -29 12 -16 14 -16 15 -3 0 9 -7 22 -15 29
-8 7 -15 8 -15 3z"/>
<path d="M1461 4338 c-27 -51 -60 -108 -72 -125 -11 -18 -16 -33 -10 -33 6 0
21 17 34 38 41 64 110 202 104 208 -2 3 -28 -37 -56 -88z"/>
<path d="M3021 4394 c0 -11 3 -14 6 -6 3 7 2 16 -1 19 -3 4 -6 -2 -5 -13z"/>
<path d="M3235 4350 c-4 -6 -2 -17 4 -23 15 -15 25 -2 13 19 -7 12 -11 13 -17
4z"/>
<path d="M3030 4329 c0 -8 16 -56 35 -105 48 -119 75 -200 75 -221 0 -10 8
-27 17 -38 l16 -20 -8 20 c-3 11 -8 33 -11 50 -2 16 -17 64 -32 105 -37 96
-52 142 -52 162 0 22 -39 69 -40 47z"/>
<path d="M3361 4214 c0 -11 3 -14 6 -6 3 7 2 16 -1 19 -3 4 -6 -2 -5 -13z"/>
<path d="M1701 4164 c0 -11 3 -14 6 -6 3 7 2 16 -1 19 -3 4 -6 -2 -5 -13z"/>
<path d="M3270 3828 c0 -3 9 -25 21 -49 15 -33 19 -37 14 -15 -6 26 -35 80
-35 64z"/>
<path d="M1050 3770 c0 -5 5 -10 11 -10 5 0 7 5 4 10 -3 6 -8 10 -11 10 -2 0
-4 -4 -4 -10z"/>
<path d="M1600 3715 c-16 -19 -3 -40 15 -25 8 6 20 10 29 8 14 -3 16 0 16 22
0 15 -46 12 -60 -5z"/>
<path d="M1325 3649 c4 -5 12 -9 19 -9 8 0 16 -9 19 -20 3 -11 10 -20 16 -20
6 0 11 9 11 20 0 11 -1 20 -3 20 -1 0 -17 4 -35 9 -20 6 -30 6 -27 0z"/>
<path d="M3376 3557 c3 -10 9 -15 12 -12 3 3 0 11 -7 18 -10 9 -11 8 -5 -6z"/>
<path d="M4980 6860 c0 -5 5 -10 10 -10 6 0 10 5 10 10 0 6 -4 10 -10 10 -5 0
-10 -4 -10 -10z"/>
<path d="M4869 6738 c-47 -57 -111 -143 -144 -193 -57 -86 -205 -363 -205
-381 0 -5 29 45 63 111 64 121 122 218 186 310 43 61 151 193 180 219 21 19
27 36 13 36 -4 0 -46 -46 -93 -102z"/>
<path d="M7808 6803 c6 -2 18 -2 25 0 6 3 1 5 -13 5 -14 0 -19 -2 -12 -5z"/>
<path d="M7645 6790 c-8 -13 25 -13 45 0 12 8 9 10 -12 10 -15 0 -30 -4 -33
-10z"/>
<path d="M7860 6731 c0 -13 20 -18 48 -13 18 4 20 7 10 13 -18 12 -58 11 -58
0z"/>
<path d="M8185 6730 c3 -5 8 -10 11 -10 2 0 4 5 4 10 0 6 -5 10 -11 10 -5 0
-7 -4 -4 -10z"/>
<path d="M8220 6711 c0 -8 52 -22 58 -16 2 1 -11 7 -27 13 -17 6 -31 7 -31 3z"/>
<path d="M7885 6690 c3 -5 16 -10 28 -9 21 0 21 1 2 9 -28 12 -37 12 -30 0z"/>
<path d="M8003 6686 c7 -19 3 -20 -24 -6 -11 6 -24 8 -31 4 -19 -12 122 -74
169 -74 13 0 23 -4 23 -8 0 -11 -70 -5 -106 8 -48 18 -35 5 24 -25 45 -23 52
-31 35 -33 -12 -2 -35 4 -52 12 -16 9 -38 13 -47 9 -12 -4 -15 -3 -10 5 9 16
-34 32 -84 32 -21 0 -40 -5 -42 -12 -4 -10 -19 -9 -71 1 -58 11 -69 11 -89 -3
-17 -12 -19 -16 -6 -16 9 0 20 5 23 10 10 16 38 12 31 -5 -5 -14 4 -19 29 -16
6 0 12 -12 13 -28 2 -23 -3 -30 -23 -35 -14 -4 -30 -4 -35 -1 -4 3 -30 1 -57
-5 -26 -5 -65 -12 -85 -15 -26 -4 -38 -11 -38 -22 0 -12 -3 -13 -14 -4 -10 8
-16 9 -21 1 -3 -5 -13 -10 -22 -10 -36 0 -227 -159 -211 -175 8 -8 93 23 91
34 -2 5 4 8 12 5 11 -5 3 -17 -32 -47 -78 -66 -169 -163 -194 -206 -13 -22
-46 -74 -72 -117 -55 -88 -58 -111 -3 -29 20 30 39 55 42 55 5 0 -41 -83 -59
-108 -5 -7 -7 -15 -3 -19 3 -3 6 -1 6 6 0 8 7 11 15 7 10 -4 14 1 12 17 -1 12
3 21 10 20 6 -1 25 19 42 46 17 26 40 56 50 65 19 17 19 16 12 -16 -5 -18 -27
-62 -50 -98 -83 -128 -160 -308 -206 -485 -15 -56 -38 -222 -37 -272 0 -13 -4
-20 -9 -17 -5 3 -9 -15 -9 -40 0 -25 4 -46 10 -46 5 0 7 8 3 18 -5 13 -3 15 7
5 10 -10 23 -1 62 40 27 29 72 85 99 125 l49 74 0 -79 c1 -106 16 -268 36
-377 26 -142 23 -138 82 -153 l52 -13 58 38 c82 57 197 188 458 527 172 223
298 407 359 525 30 59 105 270 105 296 0 14 7 33 16 42 14 13 15 29 10 94 -8
91 -19 128 -41 128 -23 0 -18 18 7 22 30 4 31 43 1 79 -23 26 -20 42 3 20 5
-5 27 -11 49 -14 29 -4 42 -1 52 11 18 24 16 32 -7 32 -10 0 -23 6 -27 13 -4
6 -24 21 -43 31 -19 11 -41 28 -48 37 -15 22 -171 101 -183 93 -5 -3 -12 1
-15 10 -3 8 -17 22 -31 32 -24 15 -26 15 -20 0z m172 -116 c3 -6 -1 -7 -9 -4
-18 7 -21 14 -7 14 6 0 13 -4 16 -10z m-335 -30 c0 -12 -33 -5 -38 8 -2 6 5 8
17 5 12 -3 21 -9 21 -13z m-182 -82 c-3 -7 -18 -19 -34 -27 -16 -8 -33 -20
-37 -28 -9 -15 -67 -47 -74 -40 -8 8 43 53 75 66 17 7 37 19 43 27 14 17 32
18 27 2z m-146 -30 c-7 -7 -12 -8 -12 -2 0 14 12 26 19 19 2 -3 -1 -11 -7 -17z
m618 2 c14 -11 21 -20 15 -20 -5 0 -21 9 -35 20 -14 11 -20 20 -15 20 6 0 21
-9 35 -20z m-680 -38 c0 -9 -36 -44 -59 -57 -18 -10 -7 10 22 43 21 22 37 29
37 14z m765 -30 c-3 -3 -11 0 -18 7 -9 10 -8 11 6 5 10 -3 15 -9 12 -12z
m-715 -61 c0 -5 -7 -11 -15 -15 -15 -5 -20 5 -8 17 9 10 23 9 23 -2z m-343
-336 c-41 -60 -62 -76 -27 -20 12 19 18 40 15 45 -10 16 26 53 38 41 7 -7 -2
-29 -26 -66z m-158 -604 c-6 -18 -14 -30 -17 -27 -2 3 1 19 8 36 16 40 23 33
9 -9z"/>
<path d="M7760 6671 c0 -5 9 -7 20 -4 11 3 20 7 20 9 0 2 -9 4 -20 4 -11 0
-20 -4 -20 -9z"/>
<path d="M7844 6652 c9 -14 58 -22 53 -8 -2 6 -16 12 -31 14 -16 2 -26 -1 -22
-6z"/>
<path d="M8465 6611 c24 -25 61 -66 83 -91 22 -25 43 -42 47 -39 3 4 -4 18
-17 32 -13 14 -44 50 -71 80 -26 30 -56 57 -66 60 -14 3 -6 -10 24 -42z"/>
<path d="M7968 6623 c7 -3 16 -2 19 1 4 3 -2 6 -13 5 -11 0 -14 -3 -6 -6z"/>
<path d="M7808 6613 c7 -3 16 -2 19 1 4 3 -2 6 -13 5 -11 0 -14 -3 -6 -6z"/>
<path d="M7600 6560 c0 -5 5 -10 10 -10 6 0 10 5 10 10 0 6 -4 10 -10 10 -5 0
-10 -4 -10 -10z"/>
<path d="M6970 6480 c-8 -5 -11 -12 -7 -16 4 -4 15 0 24 9 18 18 8 23 -17 7z"/>
<path d="M6932 6415 c-12 -19 -18 -35 -13 -35 11 0 43 49 39 60 -2 5 -13 -6
-26 -25z"/>
<path d="M7242 6248 c-14 -14 -16 -28 -2 -28 5 0 14 9 20 20 12 22 1 27 -18 8z"/>
<path d="M4345 6099 c-4 -6 -5 -13 -2 -16 7 -7 27 6 27 18 0 12 -17 12 -25 -2z"/>
<path d="M4218 6063 c6 -2 18 -2 25 0 6 3 1 5 -13 5 -14 0 -19 -2 -12 -5z"/>
<path d="M7020 5830 c-6 -12 -9 -24 -7 -27 3 -2 11 5 17 17 6 12 9 24 7 27 -3
2 -11 -5 -17 -17z"/>
<path d="M9049 5848 c-6 -12 -4 -88 2 -88 18 0 26 74 9 85 -5 3 -11 5 -11 3z"/>
<path d="M7036 5805 c-20 -30 -21 -46 -1 -19 9 12 14 14 15 6 0 -15 20 -6 20
9 0 6 -5 7 -12 3 -8 -5 -9 -2 -5 9 9 24 2 21 -17 -8z"/>
<path d="M8176 5739 c-76 -140 -194 -309 -415 -594 -95 -122 -250 -310 -304
-367 -65 -70 -12 -39 59 35 81 83 139 153 210 251 27 38 69 94 94 125 25 31
61 78 80 104 19 26 54 71 76 100 73 91 164 228 199 296 31 61 52 121 43 121
-2 0 -21 -32 -42 -71z"/>
<path d="M6982 5755 c-7 -15 -11 -30 -8 -32 7 -7 28 36 24 49 -2 6 -9 -2 -16
-17z"/>
<path d="M8456 5635 c-4 -11 -12 -28 -17 -37 -11 -22 -12 -48 0 -48 13 0 33
55 29 82 -4 22 -5 22 -12 3z"/>
<path d="M8344 5523 c-3 -10 -12 -30 -20 -45 -8 -16 -12 -28 -8 -28 4 0 -3
-11 -16 -25 -16 -17 -27 -22 -34 -15 -5 5 -15 10 -21 10 -7 0 -78 -87 -160
-192 -264 -342 -486 -615 -530 -650 -35 -27 -78 -116 -71 -145 9 -32 -9 -53
-43 -53 -36 0 -58 -18 -67 -54 -6 -25 -5 -28 15 -21 16 5 20 3 15 -8 -3 -8 0
-18 5 -22 15 -8 4 -25 -16 -25 -10 0 -13 6 -9 16 4 11 0 15 -16 12 -19 -2 -22
-10 -23 -46 -1 -57 -24 -81 -59 -62 -21 11 -28 11 -42 -1 -9 -8 -29 -15 -43
-16 -45 -4 -50 -6 -55 -20 -3 -7 -2 -12 2 -11 4 2 20 -6 35 -16 15 -10 30 -16
34 -13 3 4 36 -9 72 -28 94 -49 221 -80 221 -54 1 11 3 11 13 -1 17 -21 44
-22 112 -4 91 25 144 45 156 61 16 19 10 22 -49 24 -29 1 -52 5 -52 8 0 3 28
15 63 25 111 35 177 78 307 201 77 72 108 112 45 56 -81 -71 -111 -85 -52 -24
38 39 43 49 27 49 -11 0 -19 -6 -17 -13 1 -8 -20 -34 -48 -58 -29 -26 -41 -42
-30 -39 18 5 18 4 -3 -15 -13 -11 -30 -17 -39 -14 -13 5 -2 20 48 66 44 41 50
49 19 25 -25 -19 -58 -43 -75 -53 l-30 -19 18 20 c9 11 17 24 17 27 0 4 50 58
112 120 150 150 269 333 314 483 10 32 24 64 32 71 8 7 12 19 8 28 -3 9 -2 13
3 10 12 -7 22 23 26 78 1 23 8 55 14 70 6 16 9 33 5 38 -3 5 2 19 12 31 l16
23 -6 -25 c-3 -14 -8 -45 -11 -70 -4 -42 -4 -43 4 -10 17 65 38 165 45 208 5
33 3 42 -8 42 -10 0 -16 -12 -18 -35 -2 -28 -6 -33 -18 -24 -11 8 -12 12 -2
16 14 6 17 53 2 53 -5 0 -10 20 -10 45 0 51 -9 55 -58 25 -37 -23 -53 -20 -45
10 7 25 -5 27 -13 3z m-54 -672 c-16 -31 -32 -36 -18 -7 6 14 15 26 20 26 5 0
4 -9 -2 -19z m-665 -711 c-3 -5 -13 -10 -21 -10 -8 0 -14 5 -14 10 0 6 9 10
21 10 11 0 17 -4 14 -10z m-55 -50 c0 -14 -47 -32 -93 -36 -21 -1 -44 -7 -51
-13 -10 -9 -15 -8 -19 4 -5 10 2 16 21 20 24 5 89 22 117 30 19 6 25 5 25 -5z
m121 -34 c-23 -24 -68 -40 -76 -26 -4 6 77 48 94 50 3 0 -6 -11 -18 -24z
m-121 -36 c0 -5 -7 -10 -16 -10 -8 0 -12 5 -9 10 3 6 10 10 16 10 5 0 9 -4 9
-10z"/>
<path d="M6871 5463 c-1 -6 -4 -20 -7 -30 -5 -17 -5 -17 6 0 6 10 9 23 6 30
-3 9 -5 9 -5 0z"/>
<path d="M6884 5423 c-11 -54 -15 -60 -24 -38 -11 25 -11 -1 0 -35 l7 -25 10
25 c11 28 24 100 18 100 -3 0 -7 -12 -11 -27z"/>
<path d="M8650 5428 c0 -13 -2 -48 -5 -78 -7 -73 10 -35 19 43 4 36 2 57 -4
57 -5 0 -10 -10 -10 -22z"/>
<path d="M8907 5411 c-4 -19 -5 -36 -2 -39 10 -11 16 7 13 40 l-3 33 -8 -34z"/>
<path d="M8942 5405 c-9 -20 -9 -25 2 -25 15 0 29 37 17 45 -5 2 -13 -7 -19
-20z"/>
<path d="M8560 5370 c0 -19 1 -19 20 -3 11 10 20 19 20 20 0 2 -9 3 -20 3 -13
0 -20 -7 -20 -20z"/>
<path d="M8842 5350 c0 -19 2 -27 5 -17 2 9 2 25 0 35 -3 9 -5 1 -5 -18z"/>
<path d="M8947 5353 c-4 -3 -6 -29 -6 -57 l2 -51 7 55 c7 59 7 64 -3 53z"/>
<path d="M8574 5312 c-5 -20 -7 -48 -4 -62 5 -19 8 -11 14 33 9 69 4 82 -10
29z"/>
<path d="M6854 5294 c-4 -14 -4 -46 0 -70 4 -29 2 -43 -4 -39 -6 3 -10 1 -10
-4 0 -6 6 -11 13 -11 9 0 13 20 12 75 0 41 -1 75 -2 75 -2 0 -6 -12 -9 -26z"/>
<path d="M8796 5169 c-4 -23 -5 -44 -2 -46 2 -2 7 14 11 37 4 23 5 43 2 46 -2
3 -7 -14 -11 -37z"/>
<path d="M8527 5173 c-4 -3 -7 -13 -7 -22 1 -13 3 -13 11 2 11 19 8 33 -4 20z"/>
<path d="M6831 5134 c0 -11 3 -14 6 -6 3 7 2 16 -1 19 -3 4 -6 -2 -5 -13z"/>
<path d="M6851 5104 c0 -11 3 -14 6 -6 3 7 2 16 -1 19 -3 4 -6 -2 -5 -13z"/>
<path d="M6817 5093 c-11 -10 -8 -53 3 -53 6 0 10 14 10 30 0 31 -2 35 -13 23z"/>
<path d="M8496 5064 c-9 -23 -7 -36 3 -30 12 8 21 46 11 46 -4 0 -11 -7 -14
-16z"/>
<path d="M6793 5015 c0 -27 2 -38 4 -22 2 15 2 37 0 50 -2 12 -4 0 -4 -28z"/>
<path d="M8460 5034 c0 -10 5 -26 10 -34 8 -11 9 -7 4 15 -8 37 -14 45 -14 19z"/>
<path d="M6881 5024 c0 -11 3 -14 6 -6 3 7 2 16 -1 19 -3 4 -6 -2 -5 -13z"/>
<path d="M6821 4964 c0 -11 3 -14 6 -6 3 7 2 16 -1 19 -3 4 -6 -2 -5 -13z"/>
<path d="M8433 4963 c-3 -8 -3 -17 1 -20 3 -4 6 -1 6 6 0 7 4 10 9 7 5 -3 11
0 14 7 3 8 -2 14 -10 14 -8 0 -17 -7 -20 -14z"/>
<path d="M8418 4883 c-9 -26 -15 -49 -13 -51 5 -5 26 35 35 69 14 47 -4 33
-22 -18z"/>
<path d="M6553 4850 c0 -30 2 -43 4 -27 2 15 2 39 0 55 -2 15 -4 2 -4 -28z"/>
<path d="M8366 4773 c-14 -29 -24 -53 -21 -53 10 0 56 82 52 93 -2 7 -16 -12
-31 -40z"/>
<path d="M8387 4760 c-3 -11 -3 -20 -1 -20 2 0 8 9 14 20 6 11 7 20 2 20 -6 0
-12 -9 -15 -20z"/>
<path d="M6431 4695 c0 -22 4 -47 9 -55 7 -11 9 -8 9 15 -1 17 -5 41 -9 55 -7
22 -8 20 -9 -15z"/>
<path d="M8351 4695 c-29 -50 -26 -58 5 -12 14 21 24 41 21 43 -2 3 -14 -11
-26 -31z"/>
<path d="M6450 4554 c0 -8 5 -12 10 -9 6 3 10 10 10 16 0 5 -4 9 -10 9 -5 0
-10 -7 -10 -16z"/>
<path d="M6397 4518 c-32 -40 -16 -51 21 -14 19 18 23 29 15 37 -7 7 -18 1
-36 -23z"/>
<path d="M8192 4477 c-25 -27 -30 -46 -6 -27 15 13 38 50 31 50 -2 0 -13 -10
-25 -23z"/>
<path d="M5142 4455 c0 -16 2 -22 5 -12 2 9 2 23 0 30 -3 6 -5 -1 -5 -18z"/>
<path d="M8132 4447 c-31 -33 -27 -45 5 -13 14 14 24 28 21 31 -2 3 -14 -5
-26 -18z"/>
<path d="M7262 4237 c-12 -13 -22 -29 -22 -35 0 -14 36 -16 45 -2 3 5 12 7 20
3 8 -3 15 -1 15 5 0 5 -7 12 -15 16 -8 3 -12 12 -9 21 9 22 -9 18 -34 -8z"/>
<path d="M7833 4107 c-22 -10 -31 -27 -15 -27 12 0 48 28 42 33 -3 2 -15 0
-27 -6z"/>
<path d="M7180 4080 c0 -5 5 -10 11 -10 5 0 7 5 4 10 -3 6 -8 10 -11 10 -2 0
-4 -4 -4 -10z"/>
<path d="M6840 3899 c0 -21 163 -174 202 -189 18 -8 37 -20 41 -27 4 -7 12
-13 17 -13 5 0 36 -16 69 -35 32 -19 72 -35 88 -34 l28 1 -30 10 c-16 6 -37
16 -45 22 -8 7 -44 27 -80 46 -36 18 -66 37 -68 42 -2 4 -10 8 -17 8 -7 0 -28
16 -46 35 -19 19 -39 35 -46 35 -7 0 -13 6 -13 13 0 15 -60 76 -60 61 -1 -5
-10 2 -20 15 -12 14 -20 18 -20 10z"/>
<path d="M5428 3853 c7 -3 16 -2 19 1 4 3 -2 6 -13 5 -11 0 -14 -3 -6 -6z"/>
<path d="M8069 3811 c-13 -11 -22 -22 -19 -24 3 -3 19 6 35 19 17 13 25 24 19
24 -7 0 -22 -9 -35 -19z"/>
<path d="M5020 3790 c0 -5 5 -10 10 -10 6 0 10 5 10 10 0 6 -4 10 -10 10 -5 0
-10 -4 -10 -10z"/>
<path d="M8015 3770 c-3 -5 1 -10 9 -10 9 0 16 5 16 10 0 6 -4 10 -9 10 -6 0
-13 -4 -16 -10z"/>
<path d="M7915 3700 c-3 -5 -2 -10 4 -10 5 0 13 5 16 10 3 6 2 10 -4 10 -5 0
-13 -4 -16 -10z"/>
<path d="M3650 3665 c0 -8 5 -15 10 -15 6 0 10 7 10 15 0 8 -4 15 -10 15 -5 0
-10 -7 -10 -15z"/>
<path d="M4085 3649 c-10 -15 1 -23 20 -15 9 3 13 10 10 16 -8 13 -22 13 -30
-1z"/>
<path d="M7875 3640 c-3 -5 -2 -10 4 -10 5 0 13 5 16 10 3 6 2 10 -4 10 -5 0
-13 -4 -16 -10z"/>
<path d="M6140 3605 c-20 -24 -5 -28 21 -6 19 16 20 20 8 21 -9 0 -22 -7 -29
-15z"/>
<path d="M7523 3543 c9 -2 25 -2 35 0 9 3 1 5 -18 5 -19 0 -27 -2 -17 -5z"/>
</g>
</svg>
